%TF.GenerationSoftware,KiCad,Pcbnew,(5.99.0-3084-g09ad52a03)*%
%TF.CreationDate,2020-11-20T19:05:29+02:00*%
%TF.ProjectId,Arduino Nano rev 1,41726475-696e-46f2-904e-616e6f207265,rev?*%
%TF.SameCoordinates,Original*%
%TF.FileFunction,Legend,Top*%
%TF.FilePolarity,Positive*%
%FSLAX46Y46*%
G04 Gerber Fmt 4.6, Leading zero omitted, Abs format (unit mm)*
G04 Created by KiCad (PCBNEW (5.99.0-3084-g09ad52a03)) date 2020-11-20 19:05:29*
%MOMM*%
%LPD*%
G01*
G04 APERTURE LIST*
%ADD10C,0.150000*%
%ADD11C,0.120000*%
G04 APERTURE END LIST*
D10*
%TO.C,J1*%
X136752380Y-107333333D02*
X137752380Y-107000000D01*
X136752380Y-106666666D01*
X137657142Y-105761904D02*
X137704761Y-105809523D01*
X137752380Y-105952380D01*
X137752380Y-106047619D01*
X137704761Y-106190476D01*
X137609523Y-106285714D01*
X137514285Y-106333333D01*
X137323809Y-106380952D01*
X137180952Y-106380952D01*
X136990476Y-106333333D01*
X136895238Y-106285714D01*
X136800000Y-106190476D01*
X136752380Y-106047619D01*
X136752380Y-105952380D01*
X136800000Y-105809523D01*
X136847619Y-105761904D01*
X137657142Y-104761904D02*
X137704761Y-104809523D01*
X137752380Y-104952380D01*
X137752380Y-105047619D01*
X137704761Y-105190476D01*
X137609523Y-105285714D01*
X137514285Y-105333333D01*
X137323809Y-105380952D01*
X137180952Y-105380952D01*
X136990476Y-105333333D01*
X136895238Y-105285714D01*
X136800000Y-105190476D01*
X136752380Y-105047619D01*
X136752380Y-104952380D01*
X136800000Y-104809523D01*
X136847619Y-104761904D01*
X133804761Y-107214285D02*
X133852380Y-107071428D01*
X133852380Y-106833333D01*
X133804761Y-106738095D01*
X133757142Y-106690476D01*
X133661904Y-106642857D01*
X133566666Y-106642857D01*
X133471428Y-106690476D01*
X133423809Y-106738095D01*
X133376190Y-106833333D01*
X133328571Y-107023809D01*
X133280952Y-107119047D01*
X133233333Y-107166666D01*
X133138095Y-107214285D01*
X133042857Y-107214285D01*
X132947619Y-107166666D01*
X132900000Y-107119047D01*
X132852380Y-107023809D01*
X132852380Y-106785714D01*
X132900000Y-106642857D01*
X133852380Y-106214285D02*
X132852380Y-106214285D01*
X132852380Y-105976190D01*
X132900000Y-105833333D01*
X132995238Y-105738095D01*
X133090476Y-105690476D01*
X133280952Y-105642857D01*
X133423809Y-105642857D01*
X133614285Y-105690476D01*
X133709523Y-105738095D01*
X133804761Y-105833333D01*
X133852380Y-105976190D01*
X133852380Y-106214285D01*
X133566666Y-105261904D02*
X133566666Y-104785714D01*
X133852380Y-105357142D02*
X132852380Y-105023809D01*
X133852380Y-104690476D01*
X138900000Y-106761904D02*
X138852380Y-106857142D01*
X138852380Y-107000000D01*
X138900000Y-107142857D01*
X138995238Y-107238095D01*
X139090476Y-107285714D01*
X139280952Y-107333333D01*
X139423809Y-107333333D01*
X139614285Y-107285714D01*
X139709523Y-107238095D01*
X139804761Y-107142857D01*
X139852380Y-107000000D01*
X139852380Y-106904761D01*
X139804761Y-106761904D01*
X139757142Y-106714285D01*
X139423809Y-106714285D01*
X139423809Y-106904761D01*
X139852380Y-106285714D02*
X138852380Y-106285714D01*
X139852380Y-105714285D01*
X138852380Y-105714285D01*
X139852380Y-105238095D02*
X138852380Y-105238095D01*
X138852380Y-105000000D01*
X138900000Y-104857142D01*
X138995238Y-104761904D01*
X139090476Y-104714285D01*
X139280952Y-104666666D01*
X139423809Y-104666666D01*
X139614285Y-104714285D01*
X139709523Y-104761904D01*
X139804761Y-104857142D01*
X139852380Y-105000000D01*
X139852380Y-105238095D01*
X135704761Y-107190476D02*
X135752380Y-107047619D01*
X135752380Y-106809523D01*
X135704761Y-106714285D01*
X135657142Y-106666666D01*
X135561904Y-106619047D01*
X135466666Y-106619047D01*
X135371428Y-106666666D01*
X135323809Y-106714285D01*
X135276190Y-106809523D01*
X135228571Y-107000000D01*
X135180952Y-107095238D01*
X135133333Y-107142857D01*
X135038095Y-107190476D01*
X134942857Y-107190476D01*
X134847619Y-107142857D01*
X134800000Y-107095238D01*
X134752380Y-107000000D01*
X134752380Y-106761904D01*
X134800000Y-106619047D01*
X135657142Y-105619047D02*
X135704761Y-105666666D01*
X135752380Y-105809523D01*
X135752380Y-105904761D01*
X135704761Y-106047619D01*
X135609523Y-106142857D01*
X135514285Y-106190476D01*
X135323809Y-106238095D01*
X135180952Y-106238095D01*
X134990476Y-106190476D01*
X134895238Y-106142857D01*
X134800000Y-106047619D01*
X134752380Y-105904761D01*
X134752380Y-105809523D01*
X134800000Y-105666666D01*
X134847619Y-105619047D01*
X135752380Y-104714285D02*
X135752380Y-105190476D01*
X134752380Y-105190476D01*
%TO.C,SW*%
X131392857Y-80654761D02*
X131535714Y-80702380D01*
X131773809Y-80702380D01*
X131869047Y-80654761D01*
X131916666Y-80607142D01*
X131964285Y-80511904D01*
X131964285Y-80416666D01*
X131916666Y-80321428D01*
X131869047Y-80273809D01*
X131773809Y-80226190D01*
X131583333Y-80178571D01*
X131488095Y-80130952D01*
X131440476Y-80083333D01*
X131392857Y-79988095D01*
X131392857Y-79892857D01*
X131440476Y-79797619D01*
X131488095Y-79750000D01*
X131583333Y-79702380D01*
X131821428Y-79702380D01*
X131964285Y-79750000D01*
X132297619Y-79702380D02*
X132535714Y-80702380D01*
X132726190Y-79988095D01*
X132916666Y-80702380D01*
X133154761Y-79702380D01*
%TO.C,BAT_MON*%
X140428571Y-82488095D02*
X140476190Y-82345238D01*
X140523809Y-82297619D01*
X140619047Y-82250000D01*
X140761904Y-82250000D01*
X140857142Y-82297619D01*
X140904761Y-82345238D01*
X140952380Y-82440476D01*
X140952380Y-82821428D01*
X139952380Y-82821428D01*
X139952380Y-82488095D01*
X140000000Y-82392857D01*
X140047619Y-82345238D01*
X140142857Y-82297619D01*
X140238095Y-82297619D01*
X140333333Y-82345238D01*
X140380952Y-82392857D01*
X140428571Y-82488095D01*
X140428571Y-82821428D01*
X140666666Y-81869047D02*
X140666666Y-81392857D01*
X140952380Y-81964285D02*
X139952380Y-81630952D01*
X140952380Y-81297619D01*
X139952380Y-81107142D02*
X139952380Y-80535714D01*
X140952380Y-80821428D02*
X139952380Y-80821428D01*
X141047619Y-80440476D02*
X141047619Y-79678571D01*
X140952380Y-79440476D02*
X139952380Y-79440476D01*
X140666666Y-79107142D01*
X139952380Y-78773809D01*
X140952380Y-78773809D01*
X139952380Y-78107142D02*
X139952380Y-77916666D01*
X140000000Y-77821428D01*
X140095238Y-77726190D01*
X140285714Y-77678571D01*
X140619047Y-77678571D01*
X140809523Y-77726190D01*
X140904761Y-77821428D01*
X140952380Y-77916666D01*
X140952380Y-78107142D01*
X140904761Y-78202380D01*
X140809523Y-78297619D01*
X140619047Y-78345238D01*
X140285714Y-78345238D01*
X140095238Y-78297619D01*
X140000000Y-78202380D01*
X139952380Y-78107142D01*
X140952380Y-77250000D02*
X139952380Y-77250000D01*
X140952380Y-76678571D01*
X139952380Y-76678571D01*
%TO.C,GND*%
X137750000Y-78511904D02*
X137702380Y-78607142D01*
X137702380Y-78750000D01*
X137750000Y-78892857D01*
X137845238Y-78988095D01*
X137940476Y-79035714D01*
X138130952Y-79083333D01*
X138273809Y-79083333D01*
X138464285Y-79035714D01*
X138559523Y-78988095D01*
X138654761Y-78892857D01*
X138702380Y-78750000D01*
X138702380Y-78654761D01*
X138654761Y-78511904D01*
X138607142Y-78464285D01*
X138273809Y-78464285D01*
X138273809Y-78654761D01*
X138702380Y-78035714D02*
X137702380Y-78035714D01*
X138702380Y-77464285D01*
X137702380Y-77464285D01*
X138702380Y-76988095D02*
X137702380Y-76988095D01*
X137702380Y-76750000D01*
X137750000Y-76607142D01*
X137845238Y-76511904D01*
X137940476Y-76464285D01*
X138130952Y-76416666D01*
X138273809Y-76416666D01*
X138464285Y-76464285D01*
X138559523Y-76511904D01*
X138654761Y-76607142D01*
X138702380Y-76750000D01*
X138702380Y-76988095D01*
%TO.C,VIN*%
X135452380Y-78595238D02*
X136452380Y-78261904D01*
X135452380Y-77928571D01*
X136452380Y-77595238D02*
X135452380Y-77595238D01*
X136452380Y-77119047D02*
X135452380Y-77119047D01*
X136452380Y-76547619D01*
X135452380Y-76547619D01*
%TO.C,R*%
X132702380Y-85590476D02*
X132226190Y-85923809D01*
X132702380Y-86161904D02*
X131702380Y-86161904D01*
X131702380Y-85780952D01*
X131750000Y-85685714D01*
X131797619Y-85638095D01*
X131892857Y-85590476D01*
X132035714Y-85590476D01*
X132130952Y-85638095D01*
X132178571Y-85685714D01*
X132226190Y-85780952D01*
X132226190Y-86161904D01*
D11*
%TO.C,SW*%
X133580000Y-77500000D02*
X133580000Y-78830000D01*
X130920000Y-76230000D02*
X130920000Y-73630000D01*
X133580000Y-78830000D02*
X132250000Y-78830000D01*
X133580000Y-76230000D02*
X133580000Y-73630000D01*
X133580000Y-73630000D02*
X130920000Y-73630000D01*
X133580000Y-76230000D02*
X130920000Y-76230000D01*
%TO.C,R*%
X133170000Y-87880000D02*
X133170000Y-84040000D01*
X131330000Y-87880000D02*
X131330000Y-84040000D01*
%TD*%
M02*
