%TF.GenerationSoftware,KiCad,Pcbnew,(5.99.0-3084-g09ad52a03)*%
%TF.CreationDate,2020-11-20T19:05:28+02:00*%
%TF.ProjectId,Arduino Nano rev 1,41726475-696e-46f2-904e-616e6f207265,rev?*%
%TF.SameCoordinates,Original*%
%TF.FileFunction,Copper,L1,Top*%
%TF.FilePolarity,Positive*%
%FSLAX46Y46*%
G04 Gerber Fmt 4.6, Leading zero omitted, Abs format (unit mm)*
G04 Created by KiCad (PCBNEW (5.99.0-3084-g09ad52a03)) date 2020-11-20 19:05:28*
%MOMM*%
%LPD*%
G01*
G04 APERTURE LIST*
%TA.AperFunction,ComponentPad*%
%ADD10C,1.600000*%
%TD*%
%TA.AperFunction,ComponentPad*%
%ADD11R,1.600000X1.600000*%
%TD*%
%TA.AperFunction,ComponentPad*%
%ADD12R,1.700000X1.700000*%
%TD*%
%TA.AperFunction,ComponentPad*%
%ADD13O,1.700000X1.700000*%
%TD*%
%TA.AperFunction,ComponentPad*%
%ADD14C,1.400000*%
%TD*%
%TA.AperFunction,ComponentPad*%
%ADD15O,1.400000X1.400000*%
%TD*%
%TA.AperFunction,ComponentPad*%
%ADD16O,1.600000X1.600000*%
%TD*%
%TA.AperFunction,ViaPad*%
%ADD17C,0.800000*%
%TD*%
%TA.AperFunction,Conductor*%
%ADD18C,0.250000*%
%TD*%
G04 APERTURE END LIST*
D10*
%TO.P,J1,1,Pin_1*%
%TO.N,/SDA*%
X133300000Y-108600000D03*
D11*
%TO.P,J1,2,Pin_2*%
%TO.N,/SCL*%
X135300000Y-108600000D03*
D10*
%TO.P,J1,3,Pin_3*%
%TO.N,+5V*%
X137300000Y-108600000D03*
%TO.P,J1,4,Pin_4*%
%TO.N,GND*%
X139300000Y-108600000D03*
%TD*%
D12*
%TO.P,SW,1,1*%
%TO.N,/SWITCH*%
X132250000Y-77500000D03*
D13*
%TO.P,SW,2,2*%
%TO.N,+5V*%
X132250000Y-74960000D03*
%TD*%
D10*
%TO.P,BAT_MON,1*%
%TO.N,/BAT_MON*%
X140500000Y-74750000D03*
%TD*%
%TO.P,GND,1*%
%TO.N,GND*%
X138250000Y-74750000D03*
%TD*%
%TO.P,VIN,1*%
%TO.N,VBUS*%
X136000000Y-74750000D03*
%TD*%
D14*
%TO.P,R,1*%
%TO.N,GND*%
X132250000Y-88500000D03*
D15*
%TO.P,R,2*%
%TO.N,/SWITCH*%
X132250000Y-83420000D03*
%TD*%
D11*
%TO.P,A1,1,D1/TX*%
%TO.N,Net-(A1-Pad1)*%
X128700000Y-108700000D03*
D16*
%TO.P,A1,2,D0/RX*%
%TO.N,Net-(A1-Pad2)*%
X128700000Y-106160000D03*
%TO.P,A1,3,~RESET*%
%TO.N,Net-(A1-Pad3)*%
X128700000Y-103620000D03*
%TO.P,A1,4,GND*%
%TO.N,GND*%
X128700000Y-101080000D03*
%TO.P,A1,5,D2*%
%TO.N,/SWITCH*%
X128700000Y-98540000D03*
%TO.P,A1,6,D3*%
%TO.N,Net-(A1-Pad6)*%
X128700000Y-96000000D03*
%TO.P,A1,7,D4*%
%TO.N,Net-(A1-Pad7)*%
X128700000Y-93460000D03*
%TO.P,A1,8,D5*%
%TO.N,Net-(A1-Pad8)*%
X128700000Y-90920000D03*
%TO.P,A1,9,D6*%
%TO.N,Net-(A1-Pad9)*%
X128700000Y-88380000D03*
%TO.P,A1,10,D7*%
%TO.N,Net-(A1-Pad10)*%
X128700000Y-85840000D03*
%TO.P,A1,11,D8*%
%TO.N,Net-(A1-Pad11)*%
X128700000Y-83300000D03*
%TO.P,A1,12,D9*%
%TO.N,Net-(A1-Pad12)*%
X128700000Y-80760000D03*
%TO.P,A1,13,D10*%
%TO.N,Net-(A1-Pad13)*%
X128700000Y-78220000D03*
%TO.P,A1,14,D11*%
%TO.N,Net-(A1-Pad14)*%
X128700000Y-75680000D03*
%TO.P,A1,15,D12*%
%TO.N,Net-(A1-Pad15)*%
X128700000Y-73140000D03*
%TO.P,A1,16,D13*%
%TO.N,Net-(A1-Pad16)*%
X143940000Y-73140000D03*
%TO.P,A1,17,3V3*%
%TO.N,Net-(A1-Pad17)*%
X143940000Y-75680000D03*
%TO.P,A1,18,AREF*%
%TO.N,Net-(A1-Pad18)*%
X143940000Y-78220000D03*
%TO.P,A1,19,A0*%
%TO.N,/BAT_MON*%
X143940000Y-80760000D03*
%TO.P,A1,20,A1*%
%TO.N,Net-(A1-Pad20)*%
X143940000Y-83300000D03*
%TO.P,A1,21,A2*%
%TO.N,Net-(A1-Pad21)*%
X143940000Y-85840000D03*
%TO.P,A1,22,A3*%
%TO.N,Net-(A1-Pad22)*%
X143940000Y-88380000D03*
%TO.P,A1,23,A4*%
%TO.N,/SDA*%
X143940000Y-90920000D03*
%TO.P,A1,24,A5*%
%TO.N,/SCL*%
X143940000Y-93460000D03*
%TO.P,A1,25,A6*%
%TO.N,Net-(A1-Pad25)*%
X143940000Y-96000000D03*
%TO.P,A1,26,A7*%
%TO.N,Net-(A1-Pad26)*%
X143940000Y-98540000D03*
%TO.P,A1,27,+5V*%
%TO.N,+5V*%
X143940000Y-101080000D03*
%TO.P,A1,28,~RESET*%
%TO.N,Net-(A1-Pad28)*%
X143940000Y-103620000D03*
%TO.P,A1,29,GND*%
%TO.N,GND*%
X143940000Y-106160000D03*
%TO.P,A1,30,VIN*%
%TO.N,VBUS*%
X143940000Y-108700000D03*
%TD*%
D17*
%TO.N,GND*%
X140500000Y-100250000D03*
X138500000Y-95750000D03*
%TD*%
D18*
%TO.N,VBUS*%
X143890000Y-108750000D02*
X143940000Y-108700000D01*
%TO.N,+5V*%
X137300000Y-107520000D02*
X143940000Y-100880000D01*
X137300000Y-108600000D02*
X137300000Y-107520000D01*
%TO.N,/SCL*%
X135300000Y-108600000D02*
X135300000Y-102100000D01*
X135300000Y-102100000D02*
X143940000Y-93460000D01*
%TO.N,/SDA*%
X140830000Y-90920000D02*
X133300000Y-98450000D01*
X133300000Y-98450000D02*
X133300000Y-108600000D01*
X143940000Y-90920000D02*
X140830000Y-90920000D01*
%TO.N,/SWITCH*%
X133170000Y-83420000D02*
X132250000Y-83420000D01*
X134500000Y-84750000D02*
X133170000Y-83420000D01*
X128700000Y-98540000D02*
X134500000Y-92740000D01*
X134500000Y-92740000D02*
X134500000Y-84750000D01*
%TO.N,/BAT_MON*%
X143930000Y-80750000D02*
X143940000Y-80760000D01*
X140500000Y-79750000D02*
X141500000Y-80750000D01*
X141500000Y-80750000D02*
X143930000Y-80750000D01*
X140500000Y-74750000D02*
X140500000Y-79750000D01*
%TO.N,GND*%
X143850000Y-106250000D02*
X143940000Y-106160000D01*
%TD*%
%TA.AperFunction,Conductor*%
%TO.N,GND*%
G36*
X142895553Y-72129002D02*
G01*
X142942046Y-72182658D01*
X142952150Y-72252932D01*
X142923953Y-72315991D01*
X142864459Y-72386893D01*
X142750022Y-72585104D01*
X142671743Y-72800170D01*
X142632000Y-73025566D01*
X142632000Y-73254434D01*
X142671743Y-73479830D01*
X142750022Y-73694896D01*
X142864456Y-73893103D01*
X143011572Y-74068428D01*
X143186897Y-74215544D01*
X143334706Y-74300881D01*
X143383699Y-74352263D01*
X143397135Y-74421977D01*
X143370749Y-74487888D01*
X143334706Y-74519119D01*
X143186897Y-74604456D01*
X143011572Y-74751572D01*
X142864456Y-74926897D01*
X142750022Y-75125104D01*
X142671743Y-75340170D01*
X142632000Y-75565566D01*
X142632000Y-75794434D01*
X142671743Y-76019830D01*
X142750022Y-76234896D01*
X142864456Y-76433103D01*
X143011572Y-76608428D01*
X143186897Y-76755544D01*
X143334706Y-76840881D01*
X143383699Y-76892263D01*
X143397135Y-76961977D01*
X143370749Y-77027888D01*
X143334706Y-77059119D01*
X143186897Y-77144456D01*
X143011572Y-77291572D01*
X142864456Y-77466897D01*
X142750022Y-77665104D01*
X142671743Y-77880170D01*
X142671743Y-77880172D01*
X142632000Y-78105565D01*
X142632000Y-78334435D01*
X142634745Y-78350000D01*
X142671743Y-78559830D01*
X142750022Y-78774896D01*
X142864456Y-78973103D01*
X143011572Y-79148428D01*
X143186897Y-79295544D01*
X143334706Y-79380881D01*
X143383699Y-79432263D01*
X143397135Y-79501977D01*
X143370749Y-79567888D01*
X143334706Y-79599119D01*
X143186897Y-79684456D01*
X143011572Y-79831572D01*
X142864456Y-80006897D01*
X142801466Y-80116000D01*
X141762612Y-80116000D01*
X141134000Y-79487390D01*
X141134000Y-75894307D01*
X141253105Y-75825543D01*
X141428428Y-75678429D01*
X141575544Y-75503103D01*
X141689978Y-75304896D01*
X141768257Y-75089830D01*
X141808000Y-74864434D01*
X141808000Y-74635566D01*
X141801260Y-74597338D01*
X141782337Y-74490022D01*
X141768257Y-74410170D01*
X141689978Y-74195104D01*
X141575544Y-73996897D01*
X141428428Y-73821572D01*
X141253103Y-73674456D01*
X141054896Y-73560022D01*
X140839830Y-73481743D01*
X140689566Y-73455248D01*
X140614435Y-73442000D01*
X140385565Y-73442000D01*
X140310434Y-73455248D01*
X140160170Y-73481743D01*
X139945104Y-73560022D01*
X139746897Y-73674456D01*
X139722538Y-73694896D01*
X139571572Y-73821572D01*
X139424457Y-73996896D01*
X139424456Y-73996898D01*
X139365863Y-74066726D01*
X139339004Y-74020207D01*
X138609210Y-74750000D01*
X139339004Y-75479793D01*
X139365863Y-75433274D01*
X139424456Y-75503102D01*
X139424457Y-75503104D01*
X139476869Y-75565566D01*
X139571572Y-75678428D01*
X139746897Y-75825544D01*
X139865998Y-75894307D01*
X139866000Y-75894308D01*
X139866001Y-79649585D01*
X139866001Y-79850415D01*
X139881614Y-79898467D01*
X139889516Y-79948360D01*
X139912449Y-79993367D01*
X139928061Y-80041417D01*
X139928062Y-80041419D01*
X139957758Y-80082292D01*
X139980691Y-80127301D01*
X140016417Y-80163027D01*
X140727823Y-80874434D01*
X141089882Y-81236494D01*
X141089889Y-81236500D01*
X141122699Y-81269310D01*
X141144777Y-81280559D01*
X141167713Y-81292246D01*
X141197406Y-81313818D01*
X141208583Y-81321939D01*
X141256626Y-81337549D01*
X141301641Y-81360485D01*
X141351533Y-81368388D01*
X141399583Y-81384000D01*
X142789919Y-81384000D01*
X142864456Y-81513103D01*
X143011572Y-81688428D01*
X143186897Y-81835544D01*
X143334706Y-81920881D01*
X143383699Y-81972263D01*
X143397135Y-82041977D01*
X143370749Y-82107888D01*
X143334706Y-82139119D01*
X143186897Y-82224456D01*
X143011572Y-82371572D01*
X142864456Y-82546897D01*
X142750022Y-82745104D01*
X142671743Y-82960170D01*
X142632000Y-83185566D01*
X142632000Y-83414434D01*
X142671743Y-83639830D01*
X142750022Y-83854896D01*
X142864456Y-84053103D01*
X143011572Y-84228428D01*
X143186897Y-84375544D01*
X143334706Y-84460881D01*
X143383699Y-84512263D01*
X143397135Y-84581977D01*
X143370749Y-84647888D01*
X143334706Y-84679119D01*
X143186897Y-84764456D01*
X143011572Y-84911572D01*
X142864456Y-85086897D01*
X142750022Y-85285104D01*
X142671743Y-85500170D01*
X142632000Y-85725566D01*
X142632000Y-85954434D01*
X142671743Y-86179830D01*
X142750022Y-86394896D01*
X142864456Y-86593103D01*
X143011572Y-86768428D01*
X143186897Y-86915544D01*
X143334706Y-87000881D01*
X143383699Y-87052263D01*
X143397135Y-87121977D01*
X143370749Y-87187888D01*
X143334706Y-87219119D01*
X143186897Y-87304456D01*
X143011572Y-87451572D01*
X142864456Y-87626897D01*
X142750022Y-87825104D01*
X142671743Y-88040170D01*
X142632000Y-88265566D01*
X142632000Y-88494434D01*
X142671743Y-88719830D01*
X142750022Y-88934896D01*
X142864456Y-89133103D01*
X143011572Y-89308428D01*
X143186897Y-89455544D01*
X143334706Y-89540881D01*
X143383699Y-89592263D01*
X143397135Y-89661977D01*
X143370749Y-89727888D01*
X143334706Y-89759119D01*
X143186897Y-89844456D01*
X143011571Y-89991572D01*
X142864457Y-90166895D01*
X142795693Y-90286000D01*
X140780109Y-90286000D01*
X140780103Y-90286001D01*
X140729584Y-90286001D01*
X140681540Y-90301611D01*
X140631641Y-90309515D01*
X140586622Y-90332453D01*
X140538582Y-90348062D01*
X140497719Y-90377751D01*
X140467705Y-90393044D01*
X140452699Y-90400690D01*
X140416972Y-90436417D01*
X132922701Y-97930689D01*
X132922699Y-97930690D01*
X132780690Y-98072700D01*
X132757754Y-98117715D01*
X132728061Y-98158583D01*
X132712450Y-98206630D01*
X132689515Y-98251641D01*
X132689515Y-98251642D01*
X132681612Y-98301538D01*
X132666001Y-98349585D01*
X132666001Y-98400104D01*
X132666000Y-98400110D01*
X132666001Y-107455692D01*
X132546897Y-107524456D01*
X132371572Y-107671572D01*
X132224456Y-107846897D01*
X132110022Y-108045104D01*
X132031743Y-108260170D01*
X131992000Y-108485566D01*
X131992000Y-108714434D01*
X132031743Y-108939830D01*
X132110022Y-109154896D01*
X132332939Y-109541000D01*
X130015837Y-109541000D01*
X130015837Y-107900001D01*
X129946728Y-107642081D01*
X129831574Y-107504845D01*
X129676428Y-107415272D01*
X129635214Y-107408005D01*
X129580988Y-107398443D01*
X129517376Y-107366917D01*
X129480907Y-107306003D01*
X129483159Y-107235042D01*
X129521876Y-107177837D01*
X129628427Y-107088429D01*
X129775544Y-106913103D01*
X129889978Y-106714896D01*
X129968257Y-106499830D01*
X130008000Y-106274434D01*
X130008000Y-106045566D01*
X129968257Y-105820170D01*
X129889978Y-105605104D01*
X129775544Y-105406897D01*
X129628428Y-105231572D01*
X129453103Y-105084456D01*
X129305294Y-104999119D01*
X129256301Y-104947737D01*
X129242865Y-104878023D01*
X129269251Y-104812112D01*
X129305294Y-104780881D01*
X129453103Y-104695544D01*
X129628428Y-104548428D01*
X129775544Y-104373103D01*
X129889978Y-104174896D01*
X129968257Y-103959830D01*
X130008000Y-103734434D01*
X130008000Y-103505566D01*
X129968257Y-103280170D01*
X129889978Y-103065104D01*
X129775544Y-102866897D01*
X129628428Y-102691572D01*
X129453103Y-102544456D01*
X129305294Y-102459119D01*
X129256301Y-102407737D01*
X129242865Y-102338023D01*
X129269251Y-102272112D01*
X129305294Y-102240881D01*
X129453103Y-102155544D01*
X129628428Y-102008428D01*
X129775544Y-101833103D01*
X129889978Y-101634896D01*
X129968256Y-101419830D01*
X129983390Y-101334000D01*
X128446000Y-101334000D01*
X128446000Y-100826000D01*
X129983390Y-100826000D01*
X129968256Y-100740170D01*
X129889978Y-100525104D01*
X129775544Y-100326897D01*
X129628428Y-100151572D01*
X129453103Y-100004456D01*
X129305294Y-99919119D01*
X129256301Y-99867737D01*
X129242865Y-99798023D01*
X129269251Y-99732112D01*
X129305294Y-99700881D01*
X129453103Y-99615544D01*
X129628428Y-99468428D01*
X129775544Y-99293103D01*
X129889978Y-99094896D01*
X129968257Y-98879830D01*
X130008000Y-98654434D01*
X130008000Y-98425565D01*
X129968257Y-98200172D01*
X129968256Y-98200170D01*
X129963487Y-98173123D01*
X133065039Y-95071572D01*
X134980093Y-93156520D01*
X134980094Y-93156518D01*
X134983584Y-93153028D01*
X134983587Y-93153023D01*
X135019310Y-93117301D01*
X135042246Y-93072286D01*
X135071939Y-93031418D01*
X135075842Y-93019406D01*
X135087550Y-92983372D01*
X135110485Y-92938359D01*
X135115752Y-92905104D01*
X135118389Y-92888459D01*
X135133999Y-92840415D01*
X135133999Y-92789897D01*
X135134000Y-92789891D01*
X135134000Y-84700109D01*
X135133999Y-84700103D01*
X135133999Y-84649585D01*
X135133448Y-84647888D01*
X135118388Y-84601537D01*
X135110485Y-84551641D01*
X135110485Y-84551640D01*
X135087550Y-84506629D01*
X135071939Y-84458582D01*
X135042246Y-84417714D01*
X135019310Y-84372699D01*
X134877301Y-84230690D01*
X133689311Y-83042701D01*
X133689309Y-83042697D01*
X133547302Y-82900690D01*
X133502282Y-82877750D01*
X133461419Y-82848061D01*
X133413377Y-82832452D01*
X133368360Y-82809515D01*
X133318456Y-82801610D01*
X133280531Y-82789288D01*
X133234961Y-82712233D01*
X133094060Y-82548998D01*
X133091466Y-82546897D01*
X133067277Y-82527310D01*
X132926479Y-82413293D01*
X132737515Y-82309409D01*
X132533142Y-82240630D01*
X132533139Y-82240629D01*
X132319821Y-82209129D01*
X132319818Y-82209129D01*
X132104288Y-82215902D01*
X131893364Y-82260736D01*
X131693712Y-82342212D01*
X131693709Y-82342214D01*
X131511643Y-82457756D01*
X131352918Y-82603711D01*
X131352915Y-82603715D01*
X131222541Y-82775476D01*
X131124644Y-82967610D01*
X131124643Y-82967613D01*
X131101973Y-83042701D01*
X131062318Y-83174043D01*
X131037534Y-83388250D01*
X131051074Y-83603462D01*
X131060007Y-83639830D01*
X131102509Y-83812873D01*
X131190217Y-84009868D01*
X131272589Y-84131074D01*
X131311423Y-84188216D01*
X131462296Y-84342283D01*
X131638068Y-84467197D01*
X131833181Y-84559011D01*
X132041470Y-84614821D01*
X132148911Y-84623843D01*
X132256349Y-84632865D01*
X132256351Y-84632865D01*
X132342223Y-84624748D01*
X132471033Y-84612572D01*
X132629748Y-84568257D01*
X132678723Y-84554583D01*
X132777929Y-84506625D01*
X132872864Y-84460732D01*
X133010710Y-84360581D01*
X133047319Y-84333983D01*
X133047320Y-84333982D01*
X133128437Y-84275047D01*
X133866001Y-85012612D01*
X133866000Y-92477388D01*
X130898286Y-95445104D01*
X130223095Y-96120295D01*
X130160783Y-96154320D01*
X130089968Y-96149256D01*
X130033132Y-96106709D01*
X130008000Y-96031200D01*
X130008000Y-95885566D01*
X129968257Y-95660170D01*
X129889978Y-95445104D01*
X129775544Y-95246897D01*
X129628428Y-95071572D01*
X129453103Y-94924456D01*
X129305294Y-94839119D01*
X129256301Y-94787737D01*
X129242865Y-94718023D01*
X129269251Y-94652112D01*
X129305294Y-94620881D01*
X129453103Y-94535544D01*
X129628428Y-94388428D01*
X129775544Y-94213103D01*
X129889978Y-94014896D01*
X129968257Y-93799830D01*
X130008000Y-93574434D01*
X130008000Y-93345566D01*
X129968257Y-93120170D01*
X129889978Y-92905104D01*
X129775544Y-92706897D01*
X129628428Y-92531572D01*
X129453103Y-92384456D01*
X129305294Y-92299119D01*
X129256301Y-92247737D01*
X129242865Y-92178023D01*
X129269251Y-92112112D01*
X129305294Y-92080881D01*
X129453103Y-91995544D01*
X129628428Y-91848428D01*
X129775544Y-91673103D01*
X129889978Y-91474896D01*
X129968257Y-91259830D01*
X130008000Y-91034434D01*
X130008000Y-90805566D01*
X129968257Y-90580170D01*
X129889978Y-90365104D01*
X129775544Y-90166897D01*
X129628428Y-89991572D01*
X129453103Y-89844456D01*
X129305294Y-89759119D01*
X129256301Y-89707737D01*
X129242865Y-89638023D01*
X129269251Y-89572112D01*
X129305294Y-89540881D01*
X129349080Y-89515601D01*
X131593608Y-89515601D01*
X131638066Y-89547197D01*
X131833178Y-89639010D01*
X132041472Y-89694821D01*
X132256349Y-89712865D01*
X132471033Y-89692572D01*
X132678722Y-89634583D01*
X132872865Y-89540732D01*
X132906838Y-89516049D01*
X132249999Y-88859210D01*
X131593608Y-89515601D01*
X129349080Y-89515601D01*
X129453103Y-89455544D01*
X129628428Y-89308428D01*
X129775544Y-89133103D01*
X129889978Y-88934896D01*
X129968257Y-88719830D01*
X130008000Y-88494434D01*
X130008000Y-88468251D01*
X131037534Y-88468251D01*
X131051074Y-88683460D01*
X131102509Y-88892873D01*
X131190217Y-89089868D01*
X131235011Y-89155780D01*
X131890791Y-88500000D01*
X132609209Y-88500000D01*
X133264824Y-89155615D01*
X133315900Y-89078739D01*
X133401541Y-88880836D01*
X133450782Y-88670898D01*
X133458080Y-88392183D01*
X133419893Y-88179953D01*
X133344729Y-87977841D01*
X133265440Y-87843769D01*
X132609209Y-88500000D01*
X131890791Y-88500000D01*
X131232779Y-87841988D01*
X131222542Y-87855475D01*
X131124643Y-88047613D01*
X131062318Y-88254042D01*
X131037534Y-88468251D01*
X130008000Y-88468251D01*
X130008000Y-88265566D01*
X129968257Y-88040170D01*
X129889978Y-87825104D01*
X129775544Y-87626897D01*
X129656662Y-87485219D01*
X131594428Y-87485219D01*
X132250000Y-88140791D01*
X132907779Y-87483012D01*
X132737519Y-87389411D01*
X132533139Y-87320629D01*
X132319821Y-87289129D01*
X132104289Y-87295902D01*
X131893364Y-87340736D01*
X131693709Y-87422214D01*
X131594428Y-87485219D01*
X129656662Y-87485219D01*
X129628428Y-87451572D01*
X129453103Y-87304456D01*
X129305294Y-87219119D01*
X129256301Y-87167737D01*
X129242865Y-87098023D01*
X129269251Y-87032112D01*
X129305294Y-87000881D01*
X129453103Y-86915544D01*
X129628428Y-86768428D01*
X129775544Y-86593103D01*
X129889978Y-86394896D01*
X129968257Y-86179830D01*
X130008000Y-85954434D01*
X130008000Y-85725566D01*
X129968257Y-85500170D01*
X129889978Y-85285104D01*
X129775544Y-85086897D01*
X129628428Y-84911572D01*
X129453103Y-84764456D01*
X129305294Y-84679119D01*
X129256301Y-84627737D01*
X129242865Y-84558023D01*
X129269251Y-84492112D01*
X129305294Y-84460881D01*
X129453103Y-84375544D01*
X129628428Y-84228428D01*
X129775544Y-84053103D01*
X129889978Y-83854896D01*
X129968257Y-83639830D01*
X130008000Y-83414434D01*
X130008000Y-83185566D01*
X129968257Y-82960170D01*
X129889978Y-82745104D01*
X129775544Y-82546897D01*
X129628428Y-82371572D01*
X129453103Y-82224456D01*
X129305294Y-82139119D01*
X129256301Y-82087737D01*
X129242865Y-82018023D01*
X129269251Y-81952112D01*
X129305294Y-81920881D01*
X129453103Y-81835544D01*
X129628428Y-81688428D01*
X129775544Y-81513103D01*
X129889978Y-81314896D01*
X129968257Y-81099830D01*
X130008000Y-80874434D01*
X130008000Y-80645566D01*
X129968257Y-80420170D01*
X129889978Y-80205104D01*
X129775544Y-80006897D01*
X129628428Y-79831572D01*
X129453103Y-79684456D01*
X129305294Y-79599119D01*
X129256301Y-79547737D01*
X129242865Y-79478023D01*
X129269251Y-79412112D01*
X129305294Y-79380881D01*
X129453103Y-79295544D01*
X129628428Y-79148428D01*
X129775544Y-78973103D01*
X129889978Y-78774896D01*
X129968257Y-78559830D01*
X130005255Y-78350000D01*
X130008000Y-78334435D01*
X130008000Y-78105565D01*
X129968257Y-77880172D01*
X129968257Y-77880170D01*
X129889978Y-77665104D01*
X129775544Y-77466897D01*
X129628428Y-77291572D01*
X129453103Y-77144456D01*
X129305294Y-77059119D01*
X129256301Y-77007737D01*
X129242865Y-76938023D01*
X129269251Y-76872112D01*
X129305294Y-76840881D01*
X129453103Y-76755544D01*
X129578883Y-76650001D01*
X130884163Y-76650001D01*
X130884163Y-78349999D01*
X130953272Y-78607919D01*
X131068426Y-78745155D01*
X131223572Y-78834728D01*
X131311787Y-78850283D01*
X131400000Y-78865837D01*
X133100000Y-78865837D01*
X133357919Y-78796728D01*
X133495155Y-78681574D01*
X133584728Y-78526428D01*
X133615837Y-78349999D01*
X133615837Y-76650001D01*
X133546728Y-76392081D01*
X133431574Y-76254845D01*
X133276428Y-76165272D01*
X133252444Y-76161043D01*
X133188831Y-76129515D01*
X133152362Y-76068601D01*
X133154615Y-75997640D01*
X133192661Y-75941003D01*
X133217918Y-75919508D01*
X133365747Y-75742706D01*
X133481673Y-75543525D01*
X133496786Y-75503104D01*
X133562383Y-75327660D01*
X133605567Y-75101280D01*
X133608030Y-74844773D01*
X133572270Y-74635566D01*
X134692000Y-74635566D01*
X134692000Y-74864434D01*
X134731743Y-75089830D01*
X134810022Y-75304896D01*
X134924456Y-75503103D01*
X135071572Y-75678428D01*
X135246897Y-75825544D01*
X135445104Y-75939978D01*
X135660170Y-76018257D01*
X135810434Y-76044752D01*
X135885565Y-76058000D01*
X136114435Y-76058000D01*
X136189566Y-76044752D01*
X136339830Y-76018257D01*
X136554896Y-75939978D01*
X136729792Y-75839002D01*
X137520209Y-75839002D01*
X137695103Y-75939978D01*
X137910170Y-76018257D01*
X138135566Y-76058000D01*
X138364434Y-76058000D01*
X138589830Y-76018257D01*
X138804897Y-75939978D01*
X138979791Y-75839002D01*
X138250000Y-75109210D01*
X137520209Y-75839002D01*
X136729792Y-75839002D01*
X136753103Y-75825544D01*
X136928428Y-75678428D01*
X137023131Y-75565566D01*
X137075543Y-75503104D01*
X137075544Y-75503102D01*
X137134137Y-75433274D01*
X137160996Y-75479793D01*
X137890790Y-74750000D01*
X137160996Y-74020207D01*
X137134137Y-74066726D01*
X137075544Y-73996898D01*
X137075543Y-73996896D01*
X136928428Y-73821572D01*
X136777462Y-73694896D01*
X136753103Y-73674456D01*
X136729793Y-73660998D01*
X137520209Y-73660998D01*
X138250000Y-74390790D01*
X138979791Y-73660998D01*
X138804897Y-73560022D01*
X138589830Y-73481743D01*
X138364434Y-73442000D01*
X138135566Y-73442000D01*
X137910170Y-73481743D01*
X137695103Y-73560022D01*
X137520209Y-73660998D01*
X136729793Y-73660998D01*
X136554896Y-73560022D01*
X136339830Y-73481743D01*
X136189566Y-73455248D01*
X136114435Y-73442000D01*
X135885565Y-73442000D01*
X135810434Y-73455248D01*
X135660170Y-73481743D01*
X135445104Y-73560022D01*
X135246897Y-73674456D01*
X135071572Y-73821572D01*
X134924456Y-73996897D01*
X134810022Y-74195104D01*
X134731743Y-74410170D01*
X134717663Y-74490022D01*
X134698741Y-74597338D01*
X134692000Y-74635566D01*
X133572270Y-74635566D01*
X133569198Y-74617600D01*
X133492649Y-74400226D01*
X133380569Y-74198860D01*
X133377550Y-74195104D01*
X133275700Y-74068428D01*
X133236158Y-74019247D01*
X133063558Y-73866544D01*
X132991025Y-73821572D01*
X132867688Y-73745100D01*
X132654159Y-73658395D01*
X132429074Y-73608907D01*
X132352339Y-73605288D01*
X132198871Y-73598050D01*
X132198869Y-73598050D01*
X131970126Y-73626137D01*
X131749386Y-73692362D01*
X131542959Y-73794833D01*
X131356749Y-73930620D01*
X131196080Y-74095839D01*
X131065545Y-74285768D01*
X130968878Y-74494975D01*
X130908842Y-74717479D01*
X130887154Y-74946917D01*
X130887154Y-74946920D01*
X130904432Y-75176728D01*
X130960186Y-75400345D01*
X131052820Y-75611369D01*
X131173529Y-75794434D01*
X131179684Y-75803769D01*
X131337152Y-75972043D01*
X131337154Y-75972045D01*
X131471048Y-76115126D01*
X131400001Y-76134163D01*
X131400000Y-76134163D01*
X131304037Y-76159876D01*
X131142081Y-76203272D01*
X131004845Y-76318426D01*
X130915272Y-76473572D01*
X130884163Y-76650001D01*
X129578883Y-76650001D01*
X129628428Y-76608428D01*
X129775544Y-76433103D01*
X129889978Y-76234896D01*
X129968257Y-76019830D01*
X130008000Y-75794434D01*
X130008000Y-75565566D01*
X129968257Y-75340170D01*
X129889978Y-75125104D01*
X129775544Y-74926897D01*
X129628428Y-74751572D01*
X129453103Y-74604456D01*
X129305294Y-74519119D01*
X129256301Y-74467737D01*
X129242865Y-74398023D01*
X129269251Y-74332112D01*
X129305294Y-74300881D01*
X129453103Y-74215544D01*
X129628428Y-74068428D01*
X129775544Y-73893103D01*
X129889978Y-73694896D01*
X129968257Y-73479830D01*
X130008000Y-73254434D01*
X130008000Y-73025566D01*
X129968257Y-72800170D01*
X129889978Y-72585104D01*
X129775541Y-72386893D01*
X129716047Y-72315991D01*
X129687582Y-72250951D01*
X129698799Y-72180846D01*
X129746137Y-72127935D01*
X129812568Y-72109000D01*
X142827432Y-72109000D01*
X142895553Y-72129002D01*
G37*
%TD.AperFunction*%
%TA.AperFunction,Conductor*%
G36*
X142572668Y-103248108D02*
G01*
X142629504Y-103290655D01*
X142652722Y-103388043D01*
X142632000Y-103505565D01*
X142632000Y-103734434D01*
X142671743Y-103959830D01*
X142750022Y-104174896D01*
X142864456Y-104373103D01*
X143011572Y-104548428D01*
X143186897Y-104695544D01*
X143334706Y-104780881D01*
X143383699Y-104832263D01*
X143397135Y-104901977D01*
X143370749Y-104967888D01*
X143334706Y-104999119D01*
X143186897Y-105084456D01*
X143011572Y-105231572D01*
X142864456Y-105406897D01*
X142750022Y-105605104D01*
X142671744Y-105820170D01*
X142656610Y-105906000D01*
X144194000Y-105906000D01*
X144194000Y-106414000D01*
X142656610Y-106414000D01*
X142671744Y-106499830D01*
X142750022Y-106714896D01*
X142864456Y-106913103D01*
X143011572Y-107088428D01*
X143186897Y-107235544D01*
X143334706Y-107320881D01*
X143383699Y-107372263D01*
X143397135Y-107441977D01*
X143370749Y-107507888D01*
X143334706Y-107539119D01*
X143186897Y-107624456D01*
X143011572Y-107771572D01*
X142864456Y-107946897D01*
X142750022Y-108145104D01*
X142671743Y-108360170D01*
X142632000Y-108585566D01*
X142632000Y-108814434D01*
X142671743Y-109039830D01*
X142750022Y-109254896D01*
X142806085Y-109352000D01*
X142822823Y-109420995D01*
X142799603Y-109488087D01*
X142743795Y-109531974D01*
X142696966Y-109541000D01*
X140267061Y-109541000D01*
X140489978Y-109154896D01*
X140568257Y-108939830D01*
X140608000Y-108714434D01*
X140608000Y-108485566D01*
X140568257Y-108260170D01*
X140489978Y-108045103D01*
X140389002Y-107870208D01*
X139300000Y-108959211D01*
X138940789Y-108600000D01*
X140029792Y-107510998D01*
X139854897Y-107410022D01*
X139639830Y-107331743D01*
X139414434Y-107292000D01*
X139185566Y-107292000D01*
X138960170Y-107331743D01*
X138745104Y-107410022D01*
X138537349Y-107529969D01*
X138535631Y-107526993D01*
X138487821Y-107547917D01*
X138417716Y-107536700D01*
X138364804Y-107489362D01*
X138345885Y-107420933D01*
X138382774Y-107333836D01*
X142439541Y-103277069D01*
X142501853Y-103243043D01*
X142572668Y-103248108D01*
G37*
%TD.AperFunction*%
%TA.AperFunction,Conductor*%
G36*
X142550032Y-95850745D02*
G01*
X142606868Y-95893292D01*
X142632000Y-95968801D01*
X142632000Y-96114434D01*
X142671743Y-96339830D01*
X142750022Y-96554896D01*
X142864456Y-96753103D01*
X143011572Y-96928428D01*
X143186897Y-97075544D01*
X143334706Y-97160881D01*
X143383699Y-97212263D01*
X143397135Y-97281977D01*
X143370749Y-97347888D01*
X143334706Y-97379119D01*
X143186897Y-97464456D01*
X143011572Y-97611572D01*
X142864456Y-97786897D01*
X142750022Y-97985104D01*
X142671743Y-98200170D01*
X142662667Y-98251642D01*
X142636489Y-98400110D01*
X142632000Y-98425566D01*
X142632000Y-98654434D01*
X142671743Y-98879830D01*
X142750022Y-99094896D01*
X142864456Y-99293103D01*
X143011572Y-99468428D01*
X143186897Y-99615544D01*
X143334706Y-99700881D01*
X143383699Y-99752263D01*
X143397135Y-99821977D01*
X143370749Y-99887888D01*
X143334706Y-99919119D01*
X143186897Y-100004456D01*
X143011572Y-100151572D01*
X142864456Y-100326897D01*
X142750022Y-100525104D01*
X142671743Y-100740170D01*
X142632000Y-100965566D01*
X142632000Y-101194438D01*
X142646531Y-101276858D01*
X136922700Y-107000690D01*
X136780692Y-107142698D01*
X136757758Y-107187708D01*
X136728062Y-107228581D01*
X136728061Y-107228583D01*
X136712449Y-107276633D01*
X136689516Y-107321640D01*
X136686359Y-107341575D01*
X136681614Y-107371533D01*
X136674259Y-107394169D01*
X136634187Y-107452775D01*
X136568791Y-107480412D01*
X136498834Y-107468307D01*
X136457904Y-107436225D01*
X136445921Y-107421944D01*
X136431574Y-107404846D01*
X136431573Y-107404845D01*
X136276428Y-107315272D01*
X136188214Y-107299718D01*
X136100000Y-107284163D01*
X135934000Y-107284163D01*
X135934000Y-102362610D01*
X142416905Y-95879706D01*
X142479217Y-95845680D01*
X142550032Y-95850745D01*
G37*
%TD.AperFunction*%
%TA.AperFunction,Conductor*%
G36*
X142864457Y-91673105D02*
G01*
X143011571Y-91848428D01*
X143186897Y-91995544D01*
X143334706Y-92080881D01*
X143383699Y-92132263D01*
X143397135Y-92201977D01*
X143370749Y-92267888D01*
X143334706Y-92299119D01*
X143186897Y-92384456D01*
X143011572Y-92531572D01*
X142864456Y-92706897D01*
X142750022Y-92905104D01*
X142671743Y-93120170D01*
X142632000Y-93345566D01*
X142632000Y-93574434D01*
X142676513Y-93826877D01*
X140657710Y-95845680D01*
X134780692Y-101722697D01*
X134757758Y-101767708D01*
X134728062Y-101808581D01*
X134728061Y-101808583D01*
X134712449Y-101856633D01*
X134689516Y-101901640D01*
X134689516Y-101901641D01*
X134681614Y-101951533D01*
X134666001Y-101999585D01*
X134666001Y-102050109D01*
X134666000Y-107284163D01*
X134500000Y-107284163D01*
X134242082Y-107353272D01*
X134195928Y-107392000D01*
X134140991Y-107438097D01*
X134075950Y-107466561D01*
X134005846Y-107455344D01*
X133952934Y-107408005D01*
X133934000Y-107341575D01*
X133934000Y-98712610D01*
X141092611Y-91554000D01*
X142795693Y-91554000D01*
X142864457Y-91673105D01*
G37*
%TD.AperFunction*%
%TD*%
M02*
