M48
; DRILL file {KiCad (5.99.0-3084-g09ad52a03)} date Friday, November 20, 2020 at 07:05:39 PM
; FORMAT={-:-/ absolute / inch / decimal}
; #@! TF.CreationDate,2020-11-20T19:05:39+02:00
; #@! TF.GenerationSoftware,Kicad,Pcbnew,(5.99.0-3084-g09ad52a03)
; #@! TF.FileFunction,Plated,1,2,PTH
FMAT,2
INCH
T1C0.0157
T2C0.0276
T3C0.0315
T4C0.0394
%
G90
G05
T1
X5.4528Y-3.7697
X5.5315Y-3.9469
T2
X5.2067Y-3.2843
X5.2067Y-3.4843
T3
X5.248Y-4.2756
X5.3268Y-4.2756
X5.4055Y-4.2756
X5.4843Y-4.2756
T4
X5.4429Y-2.9429
X5.0669Y-2.8795
X5.0669Y-2.9795
X5.0669Y-3.0795
X5.0669Y-3.1795
X5.0669Y-3.2795
X5.0669Y-3.3795
X5.0669Y-3.4795
X5.0669Y-3.5795
X5.0669Y-3.6795
X5.0669Y-3.7795
X5.0669Y-3.8795
X5.0669Y-3.9795
X5.0669Y-4.0795
X5.0669Y-4.1795
X5.0669Y-4.2795
X5.6669Y-2.8795
X5.6669Y-2.9795
X5.6669Y-3.0795
X5.6669Y-3.1795
X5.6669Y-3.2795
X5.6669Y-3.3795
X5.6669Y-3.4795
X5.6669Y-3.5795
X5.6669Y-3.6795
X5.6669Y-3.7795
X5.6669Y-3.8795
X5.6669Y-3.9795
X5.6669Y-4.0795
X5.6669Y-4.1795
X5.6669Y-4.2795
X5.3543Y-2.9429
X5.5315Y-2.9429
X5.2067Y-2.9512
X5.2067Y-3.0512
T0
M30
