%TF.GenerationSoftware,KiCad,Pcbnew,(5.99.0-3084-g09ad52a03)*%
%TF.CreationDate,2020-11-20T19:05:28+02:00*%
%TF.ProjectId,Arduino Nano rev 1,41726475-696e-46f2-904e-616e6f207265,rev?*%
%TF.SameCoordinates,Original*%
%TF.FileFunction,Copper,L2,Bot*%
%TF.FilePolarity,Positive*%
%FSLAX46Y46*%
G04 Gerber Fmt 4.6, Leading zero omitted, Abs format (unit mm)*
G04 Created by KiCad (PCBNEW (5.99.0-3084-g09ad52a03)) date 2020-11-20 19:05:28*
%MOMM*%
%LPD*%
G01*
G04 APERTURE LIST*
%TA.AperFunction,ComponentPad*%
%ADD10C,1.600000*%
%TD*%
%TA.AperFunction,ComponentPad*%
%ADD11R,1.600000X1.600000*%
%TD*%
%TA.AperFunction,ComponentPad*%
%ADD12R,1.700000X1.700000*%
%TD*%
%TA.AperFunction,ComponentPad*%
%ADD13O,1.700000X1.700000*%
%TD*%
%TA.AperFunction,ComponentPad*%
%ADD14C,1.400000*%
%TD*%
%TA.AperFunction,ComponentPad*%
%ADD15O,1.400000X1.400000*%
%TD*%
%TA.AperFunction,ComponentPad*%
%ADD16O,1.600000X1.600000*%
%TD*%
%TA.AperFunction,ViaPad*%
%ADD17C,0.800000*%
%TD*%
%TA.AperFunction,Conductor*%
%ADD18C,0.250000*%
%TD*%
G04 APERTURE END LIST*
D10*
%TO.P,J1,1,Pin_1*%
%TO.N,/SDA*%
X133300000Y-108600000D03*
D11*
%TO.P,J1,2,Pin_2*%
%TO.N,/SCL*%
X135300000Y-108600000D03*
D10*
%TO.P,J1,3,Pin_3*%
%TO.N,+5V*%
X137300000Y-108600000D03*
%TO.P,J1,4,Pin_4*%
%TO.N,GND*%
X139300000Y-108600000D03*
%TD*%
D12*
%TO.P,SW,1,1*%
%TO.N,/SWITCH*%
X132250000Y-77500000D03*
D13*
%TO.P,SW,2,2*%
%TO.N,+5V*%
X132250000Y-74960000D03*
%TD*%
D10*
%TO.P,BAT_MON,1*%
%TO.N,/BAT_MON*%
X140500000Y-74750000D03*
%TD*%
%TO.P,GND,1*%
%TO.N,GND*%
X138250000Y-74750000D03*
%TD*%
%TO.P,VIN,1*%
%TO.N,VBUS*%
X136000000Y-74750000D03*
%TD*%
D14*
%TO.P,R,1*%
%TO.N,GND*%
X132250000Y-88500000D03*
D15*
%TO.P,R,2*%
%TO.N,/SWITCH*%
X132250000Y-83420000D03*
%TD*%
D11*
%TO.P,A1,1,D1/TX*%
%TO.N,Net-(A1-Pad1)*%
X128700000Y-108700000D03*
D16*
%TO.P,A1,2,D0/RX*%
%TO.N,Net-(A1-Pad2)*%
X128700000Y-106160000D03*
%TO.P,A1,3,~RESET*%
%TO.N,Net-(A1-Pad3)*%
X128700000Y-103620000D03*
%TO.P,A1,4,GND*%
%TO.N,GND*%
X128700000Y-101080000D03*
%TO.P,A1,5,D2*%
%TO.N,/SWITCH*%
X128700000Y-98540000D03*
%TO.P,A1,6,D3*%
%TO.N,Net-(A1-Pad6)*%
X128700000Y-96000000D03*
%TO.P,A1,7,D4*%
%TO.N,Net-(A1-Pad7)*%
X128700000Y-93460000D03*
%TO.P,A1,8,D5*%
%TO.N,Net-(A1-Pad8)*%
X128700000Y-90920000D03*
%TO.P,A1,9,D6*%
%TO.N,Net-(A1-Pad9)*%
X128700000Y-88380000D03*
%TO.P,A1,10,D7*%
%TO.N,Net-(A1-Pad10)*%
X128700000Y-85840000D03*
%TO.P,A1,11,D8*%
%TO.N,Net-(A1-Pad11)*%
X128700000Y-83300000D03*
%TO.P,A1,12,D9*%
%TO.N,Net-(A1-Pad12)*%
X128700000Y-80760000D03*
%TO.P,A1,13,D10*%
%TO.N,Net-(A1-Pad13)*%
X128700000Y-78220000D03*
%TO.P,A1,14,D11*%
%TO.N,Net-(A1-Pad14)*%
X128700000Y-75680000D03*
%TO.P,A1,15,D12*%
%TO.N,Net-(A1-Pad15)*%
X128700000Y-73140000D03*
%TO.P,A1,16,D13*%
%TO.N,Net-(A1-Pad16)*%
X143940000Y-73140000D03*
%TO.P,A1,17,3V3*%
%TO.N,Net-(A1-Pad17)*%
X143940000Y-75680000D03*
%TO.P,A1,18,AREF*%
%TO.N,Net-(A1-Pad18)*%
X143940000Y-78220000D03*
%TO.P,A1,19,A0*%
%TO.N,/BAT_MON*%
X143940000Y-80760000D03*
%TO.P,A1,20,A1*%
%TO.N,Net-(A1-Pad20)*%
X143940000Y-83300000D03*
%TO.P,A1,21,A2*%
%TO.N,Net-(A1-Pad21)*%
X143940000Y-85840000D03*
%TO.P,A1,22,A3*%
%TO.N,Net-(A1-Pad22)*%
X143940000Y-88380000D03*
%TO.P,A1,23,A4*%
%TO.N,/SDA*%
X143940000Y-90920000D03*
%TO.P,A1,24,A5*%
%TO.N,/SCL*%
X143940000Y-93460000D03*
%TO.P,A1,25,A6*%
%TO.N,Net-(A1-Pad25)*%
X143940000Y-96000000D03*
%TO.P,A1,26,A7*%
%TO.N,Net-(A1-Pad26)*%
X143940000Y-98540000D03*
%TO.P,A1,27,+5V*%
%TO.N,+5V*%
X143940000Y-101080000D03*
%TO.P,A1,28,~RESET*%
%TO.N,Net-(A1-Pad28)*%
X143940000Y-103620000D03*
%TO.P,A1,29,GND*%
%TO.N,GND*%
X143940000Y-106160000D03*
%TO.P,A1,30,VIN*%
%TO.N,VBUS*%
X143940000Y-108700000D03*
%TD*%
D17*
%TO.N,GND*%
X140500000Y-100250000D03*
X138500000Y-95750000D03*
%TD*%
D18*
%TO.N,VBUS*%
X141500000Y-107250000D02*
X142950000Y-108700000D01*
X136000000Y-98000000D02*
X141500000Y-103500000D01*
X142950000Y-108700000D02*
X143940000Y-108700000D01*
X136000000Y-74750000D02*
X136000000Y-98000000D01*
X141500000Y-103500000D02*
X141500000Y-107250000D01*
%TO.N,+5V*%
X132250000Y-73750000D02*
X132250000Y-74960000D01*
X142000000Y-74584998D02*
X140665002Y-73250000D01*
X132750000Y-73250000D02*
X132250000Y-73750000D01*
X140665002Y-73250000D02*
X132750000Y-73250000D01*
X143940000Y-101080000D02*
X142000000Y-99140000D01*
X142000000Y-99140000D02*
X142000000Y-74584998D01*
%TO.N,/SWITCH*%
X132250000Y-77500000D02*
X132250000Y-83420000D01*
%TD*%
%TA.AperFunction,Conductor*%
%TO.N,GND*%
G36*
X142895553Y-72129002D02*
G01*
X142942046Y-72182658D01*
X142952150Y-72252932D01*
X142923953Y-72315991D01*
X142864459Y-72386893D01*
X142750022Y-72585104D01*
X142671743Y-72800170D01*
X142632000Y-73025566D01*
X142632000Y-73254434D01*
X142671743Y-73479830D01*
X142750022Y-73694896D01*
X142864456Y-73893103D01*
X143011572Y-74068428D01*
X143186897Y-74215544D01*
X143334706Y-74300881D01*
X143383699Y-74352263D01*
X143397135Y-74421977D01*
X143370749Y-74487888D01*
X143334706Y-74519119D01*
X143186897Y-74604456D01*
X143149823Y-74635565D01*
X143011572Y-74751572D01*
X142864457Y-74926896D01*
X142864456Y-74926897D01*
X142857372Y-74935340D01*
X142854406Y-74932852D01*
X142817729Y-74967818D01*
X142748014Y-74981250D01*
X142682105Y-74954858D01*
X142640927Y-74897023D01*
X142634000Y-74855821D01*
X142634000Y-74535107D01*
X142633999Y-74535101D01*
X142633999Y-74484582D01*
X142618389Y-74436538D01*
X142610485Y-74386639D01*
X142587547Y-74341620D01*
X142571938Y-74293580D01*
X142542249Y-74252717D01*
X142523308Y-74215544D01*
X142519310Y-74207697D01*
X142377301Y-74065688D01*
X141184313Y-72872701D01*
X141184311Y-72872697D01*
X141042304Y-72730690D01*
X140997284Y-72707750D01*
X140956421Y-72678061D01*
X140908379Y-72662452D01*
X140863362Y-72639515D01*
X140850886Y-72637539D01*
X140813463Y-72631612D01*
X140765417Y-72616001D01*
X140714899Y-72616001D01*
X140714893Y-72616000D01*
X132700109Y-72616000D01*
X132700103Y-72616001D01*
X132649584Y-72616001D01*
X132605005Y-72630486D01*
X132601541Y-72631611D01*
X132563210Y-72637683D01*
X132551641Y-72639515D01*
X132506628Y-72662450D01*
X132470594Y-72674158D01*
X132458582Y-72678061D01*
X132417713Y-72707754D01*
X132394777Y-72719441D01*
X132372699Y-72730690D01*
X132339889Y-72763500D01*
X132339882Y-72763506D01*
X132336972Y-72766416D01*
X131872700Y-73230689D01*
X131872699Y-73230690D01*
X131730690Y-73372700D01*
X131707754Y-73417715D01*
X131678061Y-73458583D01*
X131662450Y-73506630D01*
X131639515Y-73551641D01*
X131639515Y-73551642D01*
X131631612Y-73601538D01*
X131616001Y-73649585D01*
X131616001Y-73700104D01*
X131616000Y-73700110D01*
X131616000Y-73758572D01*
X131542964Y-73794830D01*
X131542962Y-73794832D01*
X131542959Y-73794833D01*
X131356749Y-73930620D01*
X131196080Y-74095839D01*
X131065545Y-74285768D01*
X130968878Y-74494975D01*
X130908842Y-74717479D01*
X130887154Y-74946917D01*
X130887154Y-74946920D01*
X130904432Y-75176728D01*
X130960186Y-75400345D01*
X131052820Y-75611369D01*
X131173529Y-75794434D01*
X131179684Y-75803769D01*
X131337152Y-75972043D01*
X131337154Y-75972045D01*
X131471048Y-76115126D01*
X131400001Y-76134163D01*
X131400000Y-76134163D01*
X131304037Y-76159876D01*
X131142081Y-76203272D01*
X131004845Y-76318426D01*
X130915272Y-76473572D01*
X130884163Y-76650001D01*
X130884163Y-78349999D01*
X130953272Y-78607919D01*
X131068426Y-78745155D01*
X131223572Y-78834728D01*
X131311787Y-78850283D01*
X131400000Y-78865837D01*
X131616000Y-78865837D01*
X131616001Y-82391529D01*
X131511644Y-82457756D01*
X131511642Y-82457757D01*
X131511640Y-82457759D01*
X131352918Y-82603711D01*
X131352915Y-82603715D01*
X131222541Y-82775476D01*
X131124644Y-82967610D01*
X131062318Y-83174043D01*
X131037534Y-83388250D01*
X131051074Y-83603462D01*
X131060007Y-83639830D01*
X131102509Y-83812873D01*
X131190217Y-84009868D01*
X131221608Y-84056058D01*
X131311423Y-84188216D01*
X131462296Y-84342283D01*
X131638068Y-84467197D01*
X131833181Y-84559011D01*
X132041470Y-84614821D01*
X132148911Y-84623843D01*
X132256349Y-84632865D01*
X132256351Y-84632865D01*
X132342223Y-84624748D01*
X132471033Y-84612572D01*
X132629748Y-84568257D01*
X132678723Y-84554583D01*
X132772574Y-84509214D01*
X132872864Y-84460732D01*
X132932811Y-84417178D01*
X133047319Y-84333983D01*
X133086239Y-84293398D01*
X133196569Y-84178348D01*
X133315900Y-83998739D01*
X133401541Y-83800836D01*
X133450782Y-83590898D01*
X133458080Y-83312183D01*
X133435298Y-83185566D01*
X133419894Y-83099953D01*
X133344729Y-82897841D01*
X133344729Y-82897840D01*
X133344727Y-82897836D01*
X133234964Y-82712238D01*
X133234961Y-82712233D01*
X133094060Y-82548998D01*
X133091466Y-82546897D01*
X133003694Y-82475821D01*
X132926479Y-82413293D01*
X132926476Y-82413291D01*
X132884000Y-82378895D01*
X132884000Y-78865837D01*
X133100000Y-78865837D01*
X133357919Y-78796728D01*
X133495155Y-78681574D01*
X133584728Y-78526428D01*
X133615837Y-78349999D01*
X133615837Y-76650001D01*
X133546728Y-76392081D01*
X133431574Y-76254845D01*
X133276428Y-76165272D01*
X133252444Y-76161043D01*
X133188831Y-76129515D01*
X133152362Y-76068601D01*
X133154615Y-75997640D01*
X133192661Y-75941003D01*
X133217918Y-75919508D01*
X133365747Y-75742706D01*
X133481673Y-75543525D01*
X133496786Y-75503104D01*
X133562383Y-75327660D01*
X133605567Y-75101280D01*
X133608030Y-74844773D01*
X133569198Y-74617600D01*
X133492649Y-74400226D01*
X133380569Y-74198860D01*
X133377550Y-74195104D01*
X133327936Y-74133397D01*
X133292202Y-74088952D01*
X133265106Y-74023329D01*
X133277790Y-73953475D01*
X133326226Y-73901567D01*
X133390399Y-73884000D01*
X134771400Y-73884000D01*
X134839521Y-73904002D01*
X134886014Y-73957658D01*
X134896118Y-74027932D01*
X134880520Y-74072998D01*
X134810022Y-74195104D01*
X134731743Y-74410170D01*
X134708581Y-74541531D01*
X134698741Y-74597338D01*
X134692000Y-74635566D01*
X134692000Y-74864434D01*
X134731743Y-75089830D01*
X134810022Y-75304896D01*
X134924456Y-75503103D01*
X135071572Y-75678429D01*
X135246895Y-75825543D01*
X135366000Y-75894307D01*
X135366001Y-97899585D01*
X135366001Y-98100415D01*
X135381614Y-98148467D01*
X135389516Y-98198360D01*
X135412449Y-98243367D01*
X135428061Y-98291417D01*
X135428062Y-98291419D01*
X135457758Y-98332292D01*
X135480691Y-98377301D01*
X135516417Y-98413027D01*
X140866000Y-103762612D01*
X140866001Y-107149585D01*
X140866001Y-107350415D01*
X140881614Y-107398467D01*
X140883444Y-107410022D01*
X140889516Y-107448360D01*
X140909580Y-107487737D01*
X140912449Y-107493367D01*
X140928061Y-107541417D01*
X140928062Y-107541419D01*
X140957758Y-107582292D01*
X140979242Y-107624457D01*
X140980691Y-107627301D01*
X141016417Y-107663027D01*
X141838954Y-108485565D01*
X142539882Y-109186494D01*
X142539889Y-109186500D01*
X142572699Y-109219310D01*
X142594777Y-109230559D01*
X142617713Y-109242246D01*
X142658583Y-109271939D01*
X142706630Y-109287551D01*
X142736428Y-109302734D01*
X142788043Y-109351483D01*
X142805108Y-109420398D01*
X142782206Y-109487599D01*
X142726608Y-109531751D01*
X142679224Y-109541000D01*
X140267061Y-109541000D01*
X140489978Y-109154896D01*
X140568257Y-108939830D01*
X140608000Y-108714434D01*
X140608000Y-108485566D01*
X140568257Y-108260170D01*
X140489978Y-108045103D01*
X140389002Y-107870208D01*
X139300000Y-108959211D01*
X138549543Y-108208754D01*
X138489978Y-108045103D01*
X138375544Y-107846897D01*
X138228428Y-107671572D01*
X138053103Y-107524456D01*
X138029793Y-107510998D01*
X138570209Y-107510998D01*
X139300000Y-108240790D01*
X140029791Y-107510998D01*
X139854897Y-107410022D01*
X139639830Y-107331743D01*
X139414434Y-107292000D01*
X139185566Y-107292000D01*
X138960170Y-107331743D01*
X138745103Y-107410022D01*
X138570209Y-107510998D01*
X138029793Y-107510998D01*
X137854896Y-107410022D01*
X137639830Y-107331743D01*
X137489566Y-107305248D01*
X137414435Y-107292000D01*
X137185565Y-107292000D01*
X137110434Y-107305248D01*
X136960170Y-107331743D01*
X136759325Y-107404846D01*
X136745104Y-107410022D01*
X136546896Y-107524457D01*
X136546892Y-107524461D01*
X136536821Y-107530275D01*
X136431574Y-107404845D01*
X136276428Y-107315272D01*
X136188214Y-107299718D01*
X136100000Y-107284163D01*
X134500000Y-107284163D01*
X134418492Y-107306003D01*
X134242081Y-107353272D01*
X134044198Y-107519315D01*
X133854896Y-107410022D01*
X133639830Y-107331743D01*
X133489566Y-107305248D01*
X133414435Y-107292000D01*
X133185565Y-107292000D01*
X133110434Y-107305248D01*
X132960170Y-107331743D01*
X132745104Y-107410022D01*
X132546897Y-107524456D01*
X132371572Y-107671572D01*
X132224456Y-107846897D01*
X132110022Y-108045104D01*
X132031743Y-108260170D01*
X131992000Y-108485566D01*
X131992000Y-108714434D01*
X132031743Y-108939830D01*
X132110022Y-109154896D01*
X132202919Y-109315798D01*
X132332939Y-109541000D01*
X130015837Y-109541000D01*
X130015837Y-107900001D01*
X129992842Y-107814180D01*
X129946728Y-107642082D01*
X129946728Y-107642081D01*
X129831574Y-107504845D01*
X129676428Y-107415272D01*
X129646223Y-107409946D01*
X129580988Y-107398443D01*
X129517376Y-107366917D01*
X129480907Y-107306003D01*
X129483159Y-107235042D01*
X129521876Y-107177837D01*
X129628427Y-107088429D01*
X129775544Y-106913103D01*
X129889978Y-106714896D01*
X129968257Y-106499830D01*
X130008000Y-106274434D01*
X130008000Y-106045566D01*
X129968257Y-105820170D01*
X129889978Y-105605104D01*
X129775544Y-105406897D01*
X129628428Y-105231572D01*
X129453103Y-105084456D01*
X129305294Y-104999119D01*
X129256301Y-104947737D01*
X129242865Y-104878023D01*
X129269251Y-104812112D01*
X129305294Y-104780881D01*
X129453103Y-104695544D01*
X129628428Y-104548428D01*
X129775544Y-104373103D01*
X129889978Y-104174896D01*
X129968257Y-103959830D01*
X130008000Y-103734434D01*
X130008000Y-103505566D01*
X129968257Y-103280170D01*
X129889978Y-103065104D01*
X129775544Y-102866897D01*
X129628428Y-102691572D01*
X129453103Y-102544456D01*
X129305294Y-102459119D01*
X129256301Y-102407737D01*
X129242865Y-102338023D01*
X129269251Y-102272112D01*
X129305294Y-102240881D01*
X129453103Y-102155544D01*
X129628428Y-102008428D01*
X129775544Y-101833103D01*
X129889978Y-101634896D01*
X129968256Y-101419830D01*
X129983390Y-101334000D01*
X128446000Y-101334000D01*
X128446000Y-100826000D01*
X129983390Y-100826000D01*
X129968256Y-100740170D01*
X129889978Y-100525104D01*
X129775544Y-100326897D01*
X129628428Y-100151572D01*
X129453103Y-100004456D01*
X129305294Y-99919119D01*
X129256301Y-99867737D01*
X129242865Y-99798023D01*
X129269251Y-99732112D01*
X129305294Y-99700881D01*
X129453103Y-99615544D01*
X129628428Y-99468428D01*
X129775544Y-99293103D01*
X129889978Y-99094896D01*
X129968257Y-98879830D01*
X130008000Y-98654434D01*
X130008000Y-98425566D01*
X129999490Y-98377300D01*
X129991553Y-98332288D01*
X129968257Y-98200170D01*
X129889978Y-97985104D01*
X129775544Y-97786897D01*
X129628428Y-97611572D01*
X129453103Y-97464456D01*
X129305294Y-97379119D01*
X129256301Y-97327737D01*
X129242865Y-97258023D01*
X129269251Y-97192112D01*
X129305294Y-97160881D01*
X129453103Y-97075544D01*
X129628428Y-96928428D01*
X129775544Y-96753103D01*
X129889978Y-96554896D01*
X129968257Y-96339830D01*
X130008000Y-96114434D01*
X130008000Y-95885566D01*
X129968257Y-95660170D01*
X129889978Y-95445104D01*
X129775544Y-95246897D01*
X129628428Y-95071572D01*
X129453103Y-94924456D01*
X129305294Y-94839119D01*
X129256301Y-94787737D01*
X129242865Y-94718023D01*
X129269251Y-94652112D01*
X129305294Y-94620881D01*
X129453103Y-94535544D01*
X129628428Y-94388428D01*
X129775544Y-94213103D01*
X129889978Y-94014896D01*
X129968257Y-93799830D01*
X130008000Y-93574434D01*
X130008000Y-93345566D01*
X129968257Y-93120170D01*
X129889978Y-92905104D01*
X129775544Y-92706897D01*
X129628428Y-92531572D01*
X129453103Y-92384456D01*
X129305294Y-92299119D01*
X129256301Y-92247737D01*
X129242865Y-92178023D01*
X129269251Y-92112112D01*
X129305294Y-92080881D01*
X129453103Y-91995544D01*
X129628428Y-91848428D01*
X129775544Y-91673103D01*
X129889978Y-91474896D01*
X129968257Y-91259830D01*
X130008000Y-91034434D01*
X130008000Y-90805566D01*
X129968257Y-90580170D01*
X129889978Y-90365104D01*
X129775544Y-90166897D01*
X129628428Y-89991572D01*
X129453103Y-89844456D01*
X129305294Y-89759119D01*
X129256301Y-89707737D01*
X129242865Y-89638023D01*
X129269251Y-89572112D01*
X129305294Y-89540881D01*
X129349080Y-89515601D01*
X131593608Y-89515601D01*
X131638066Y-89547197D01*
X131833178Y-89639010D01*
X132041472Y-89694821D01*
X132256349Y-89712865D01*
X132471033Y-89692572D01*
X132678722Y-89634583D01*
X132872865Y-89540732D01*
X132906838Y-89516049D01*
X132249999Y-88859210D01*
X131593608Y-89515601D01*
X129349080Y-89515601D01*
X129453103Y-89455544D01*
X129628428Y-89308428D01*
X129775544Y-89133103D01*
X129889978Y-88934896D01*
X129968257Y-88719830D01*
X130008000Y-88494434D01*
X130008000Y-88468251D01*
X131037534Y-88468251D01*
X131051074Y-88683460D01*
X131102509Y-88892873D01*
X131190217Y-89089868D01*
X131235011Y-89155780D01*
X131890791Y-88500000D01*
X132609209Y-88500000D01*
X133264824Y-89155615D01*
X133315900Y-89078739D01*
X133401541Y-88880836D01*
X133450782Y-88670898D01*
X133458080Y-88392183D01*
X133419893Y-88179953D01*
X133344729Y-87977841D01*
X133265440Y-87843769D01*
X132609209Y-88500000D01*
X131890791Y-88500000D01*
X131232779Y-87841988D01*
X131222542Y-87855475D01*
X131124643Y-88047613D01*
X131062318Y-88254042D01*
X131037534Y-88468251D01*
X130008000Y-88468251D01*
X130008000Y-88265566D01*
X129968257Y-88040170D01*
X129889978Y-87825104D01*
X129775544Y-87626897D01*
X129656662Y-87485219D01*
X131594428Y-87485219D01*
X132250000Y-88140791D01*
X132907779Y-87483012D01*
X132737519Y-87389411D01*
X132533139Y-87320629D01*
X132319821Y-87289129D01*
X132104289Y-87295902D01*
X131893364Y-87340736D01*
X131693709Y-87422214D01*
X131594428Y-87485219D01*
X129656662Y-87485219D01*
X129628428Y-87451572D01*
X129453103Y-87304456D01*
X129305294Y-87219119D01*
X129256301Y-87167737D01*
X129242865Y-87098023D01*
X129269251Y-87032112D01*
X129305294Y-87000881D01*
X129453103Y-86915544D01*
X129628428Y-86768428D01*
X129775544Y-86593103D01*
X129889978Y-86394896D01*
X129968257Y-86179830D01*
X130008000Y-85954434D01*
X130008000Y-85725566D01*
X129968257Y-85500170D01*
X129889978Y-85285104D01*
X129775544Y-85086897D01*
X129628428Y-84911572D01*
X129453103Y-84764456D01*
X129305294Y-84679119D01*
X129256301Y-84627737D01*
X129242865Y-84558023D01*
X129269251Y-84492112D01*
X129305294Y-84460881D01*
X129453103Y-84375544D01*
X129628428Y-84228428D01*
X129775544Y-84053103D01*
X129889978Y-83854896D01*
X129968257Y-83639830D01*
X130008000Y-83414434D01*
X130008000Y-83185566D01*
X129968257Y-82960170D01*
X129889978Y-82745104D01*
X129775544Y-82546897D01*
X129628428Y-82371572D01*
X129453103Y-82224456D01*
X129305294Y-82139119D01*
X129256301Y-82087737D01*
X129242865Y-82018023D01*
X129269251Y-81952112D01*
X129305294Y-81920881D01*
X129453103Y-81835544D01*
X129628428Y-81688428D01*
X129775544Y-81513103D01*
X129889978Y-81314896D01*
X129968257Y-81099830D01*
X130008000Y-80874434D01*
X130008000Y-80645566D01*
X129968257Y-80420170D01*
X129889978Y-80205104D01*
X129775544Y-80006897D01*
X129628428Y-79831572D01*
X129453103Y-79684456D01*
X129305294Y-79599119D01*
X129256301Y-79547737D01*
X129242865Y-79478023D01*
X129269251Y-79412112D01*
X129305294Y-79380881D01*
X129453103Y-79295544D01*
X129628428Y-79148428D01*
X129775544Y-78973103D01*
X129889978Y-78774896D01*
X129968257Y-78559830D01*
X130005255Y-78350000D01*
X130008000Y-78334435D01*
X130008000Y-78105565D01*
X129968257Y-77880172D01*
X129968257Y-77880170D01*
X129889978Y-77665104D01*
X129775544Y-77466897D01*
X129628428Y-77291572D01*
X129453103Y-77144456D01*
X129305294Y-77059119D01*
X129256301Y-77007737D01*
X129242865Y-76938023D01*
X129269251Y-76872112D01*
X129305294Y-76840881D01*
X129453103Y-76755544D01*
X129628428Y-76608428D01*
X129775544Y-76433103D01*
X129889978Y-76234896D01*
X129968257Y-76019830D01*
X130008000Y-75794434D01*
X130008000Y-75565566D01*
X129968257Y-75340170D01*
X129889978Y-75125104D01*
X129775544Y-74926897D01*
X129628428Y-74751572D01*
X129453103Y-74604456D01*
X129305294Y-74519119D01*
X129256301Y-74467737D01*
X129242865Y-74398023D01*
X129269251Y-74332112D01*
X129305294Y-74300881D01*
X129453103Y-74215544D01*
X129628428Y-74068428D01*
X129775544Y-73893103D01*
X129889978Y-73694896D01*
X129968257Y-73479830D01*
X130008000Y-73254434D01*
X130008000Y-73025566D01*
X129968257Y-72800170D01*
X129889978Y-72585104D01*
X129775541Y-72386893D01*
X129716047Y-72315991D01*
X129687582Y-72250951D01*
X129698799Y-72180846D01*
X129746137Y-72127935D01*
X129812568Y-72109000D01*
X142827432Y-72109000D01*
X142895553Y-72129002D01*
G37*
%TD.AperFunction*%
%TA.AperFunction,Conductor*%
G36*
X139339003Y-75479793D02*
G01*
X139365863Y-75433274D01*
X139424456Y-75503102D01*
X139424457Y-75503104D01*
X139476869Y-75565566D01*
X139571572Y-75678428D01*
X139746897Y-75825544D01*
X139945104Y-75939978D01*
X140160170Y-76018257D01*
X140310434Y-76044752D01*
X140385565Y-76058000D01*
X140614435Y-76058000D01*
X140689566Y-76044752D01*
X140839830Y-76018257D01*
X141054896Y-75939978D01*
X141366001Y-75760362D01*
X141366000Y-99189890D01*
X141366001Y-99189896D01*
X141366001Y-99240415D01*
X141381612Y-99288461D01*
X141389515Y-99338359D01*
X141412450Y-99383370D01*
X141428061Y-99431417D01*
X141457754Y-99472285D01*
X141480690Y-99517300D01*
X141622699Y-99659310D01*
X141622701Y-99659311D01*
X142676513Y-100713123D01*
X142632000Y-100965566D01*
X142632000Y-101194434D01*
X142671743Y-101419830D01*
X142750022Y-101634896D01*
X142864456Y-101833103D01*
X143011572Y-102008428D01*
X143186897Y-102155544D01*
X143334706Y-102240881D01*
X143383699Y-102292263D01*
X143397135Y-102361977D01*
X143370749Y-102427888D01*
X143334706Y-102459119D01*
X143186897Y-102544456D01*
X143011572Y-102691572D01*
X142864456Y-102866897D01*
X142750022Y-103065104D01*
X142671743Y-103280170D01*
X142632000Y-103505566D01*
X142632000Y-103734434D01*
X142671743Y-103959830D01*
X142750022Y-104174896D01*
X142864456Y-104373103D01*
X143011572Y-104548428D01*
X143186897Y-104695544D01*
X143334706Y-104780881D01*
X143383699Y-104832263D01*
X143397135Y-104901977D01*
X143370749Y-104967888D01*
X143334706Y-104999119D01*
X143186897Y-105084456D01*
X143011572Y-105231572D01*
X142864456Y-105406897D01*
X142750022Y-105605104D01*
X142671744Y-105820170D01*
X142656610Y-105906000D01*
X144194000Y-105906000D01*
X144194000Y-106414000D01*
X142656610Y-106414000D01*
X142671744Y-106499830D01*
X142750022Y-106714896D01*
X142864456Y-106913103D01*
X143011572Y-107088428D01*
X143186897Y-107235544D01*
X143334706Y-107320881D01*
X143383699Y-107372263D01*
X143397135Y-107441977D01*
X143370749Y-107507888D01*
X143334706Y-107539119D01*
X143186897Y-107624456D01*
X142960793Y-107814180D01*
X142134000Y-106987390D01*
X142134000Y-103399583D01*
X142118388Y-103351533D01*
X142110485Y-103301641D01*
X142087549Y-103256626D01*
X142071939Y-103208583D01*
X142042246Y-103167714D01*
X142019310Y-103122699D01*
X141983587Y-103086977D01*
X141983584Y-103086972D01*
X141980094Y-103083482D01*
X141980093Y-103083480D01*
X138684665Y-99788054D01*
X136634000Y-97737390D01*
X136634000Y-75894307D01*
X136729792Y-75839002D01*
X137520209Y-75839002D01*
X137695103Y-75939978D01*
X137910170Y-76018257D01*
X138135566Y-76058000D01*
X138364434Y-76058000D01*
X138589830Y-76018257D01*
X138804897Y-75939978D01*
X138979791Y-75839002D01*
X138250000Y-75109210D01*
X137520209Y-75839002D01*
X136729792Y-75839002D01*
X136753105Y-75825543D01*
X136928428Y-75678429D01*
X137134137Y-75433274D01*
X137160997Y-75479793D01*
X138250000Y-74390789D01*
X139339003Y-75479793D01*
G37*
%TD.AperFunction*%
%TD*%
M02*
